<svg width="130" height="23" viewBox="0 0 130 23" fill="none" xmlns="http://www.w3.org/2000/svg">
<path d="M16.0351 8.51795L12.9721 0L9.90945 8.51795H0L8.01755 13.782L4.95486 22.3011L12.9721 17.0348L20.9897 22.3011L17.927 13.782L25.9446 8.51795H16.0351Z" fill="#F4CE14"/>
<path d="M42.0489 8.51795L38.9862 0L35.9232 8.51795H26.0138L34.0313 13.782L30.9687 22.3011L38.9862 17.0348L47.0038 22.3011L43.9408 13.782L51.9583 8.51795H42.0489Z" fill="#F4CE14"/>
<path d="M68.0627 8.51795L65 0L61.9373 8.51795H52.0276L60.0451 13.782L56.9824 22.3011L65 17.0348L73.0175 22.3011L69.9549 13.782L77.9721 8.51795H68.0627Z" fill="#F4CE14"/>
<path d="M94.0765 8.51795L91.0138 0L87.9511 8.51795H78.0416L86.0592 13.782L82.9962 22.3011L91.0138 17.0348L99.0313 22.3011L95.9686 13.782L103.986 8.51795H94.0765Z" fill="#F4CE14"/>
<path d="M117.028 0L113.965 8.51795H104.055L112.073 13.782L109.01 22.3011L117.028 17.0348L125.045 22.3011L121.982 13.782L130 8.51795H120.091L117.028 0Z" fill="#F4CE14"/>
</svg>
